<svg xmlns="http://www.w3.org/2000/svg" viewBox="0 0 1200 630" width="1200" height="630">
  <rect width="1200" height="630" fill="#fafaf8"/>
  <text x="80" y="38" fill="#1a1a1a" font-size="22" font-weight="700" font-family="Inter,system-ui,sans-serif">Steuertarif-Simulator</text>
  <text x="348" y="38" fill="#9c9590" font-size="16" font-weight="400" font-family="Inter,system-ui,sans-serif">§32a EStG · VZ 2026</text>
  <text x="1140" y="38" text-anchor="end" fill="#9c9590" font-size="12" font-family="Inter,system-ui,sans-serif">steuerreform.sky-lab.de · @LeonJBergmann</text>
  <text x="80" y="58" fill="#6b6560" font-size="13" font-family="Inter,system-ui,sans-serif">Grenzsteuersatz: Status Quo vs. Mittelstandsbauch abschaffen + 49%</text>
  <line x1="80" y1="560.0" x2="1140" y2="560.0" stroke="#d4d0ca" stroke-width="0.7"/><text x="70" y="565.0" text-anchor="end" fill="#9c9590" font-size="14" font-family="Inter,system-ui,sans-serif">0%</text><line x1="80" y1="464.0" x2="1140" y2="464.0" stroke="#d4d0ca" stroke-width="0.7"/><text x="70" y="469.0" text-anchor="end" fill="#9c9590" font-size="14" font-family="Inter,system-ui,sans-serif">10%</text><line x1="80" y1="368.0" x2="1140" y2="368.0" stroke="#d4d0ca" stroke-width="0.7"/><text x="70" y="373.0" text-anchor="end" fill="#9c9590" font-size="14" font-family="Inter,system-ui,sans-serif">20%</text><line x1="80" y1="272.0" x2="1140" y2="272.0" stroke="#d4d0ca" stroke-width="0.7"/><text x="70" y="277.0" text-anchor="end" fill="#9c9590" font-size="14" font-family="Inter,system-ui,sans-serif">30%</text><line x1="80" y1="176.0" x2="1140" y2="176.0" stroke="#d4d0ca" stroke-width="0.7"/><text x="70" y="181.0" text-anchor="end" fill="#9c9590" font-size="14" font-family="Inter,system-ui,sans-serif">40%</text><line x1="80" y1="80.0" x2="1140" y2="80.0" stroke="#d4d0ca" stroke-width="0.7"/><text x="70" y="85.0" text-anchor="end" fill="#9c9590" font-size="14" font-family="Inter,system-ui,sans-serif">50%</text><line x1="80.0" y1="80" x2="80.0" y2="560" stroke="#e8e5df" stroke-width="0.5"/><text x="80.0" y="582" text-anchor="middle" fill="#9c9590" font-size="13" font-family="Inter,system-ui,sans-serif">0k</text><line x1="256.7" y1="80" x2="256.7" y2="560" stroke="#e8e5df" stroke-width="0.5"/><text x="256.7" y="582" text-anchor="middle" fill="#9c9590" font-size="13" font-family="Inter,system-ui,sans-serif">50k</text><line x1="433.3" y1="80" x2="433.3" y2="560" stroke="#e8e5df" stroke-width="0.5"/><text x="433.3" y="582" text-anchor="middle" fill="#9c9590" font-size="13" font-family="Inter,system-ui,sans-serif">100k</text><line x1="610.0" y1="80" x2="610.0" y2="560" stroke="#e8e5df" stroke-width="0.5"/><text x="610.0" y="582" text-anchor="middle" fill="#9c9590" font-size="13" font-family="Inter,system-ui,sans-serif">150k</text><line x1="786.7" y1="80" x2="786.7" y2="560" stroke="#e8e5df" stroke-width="0.5"/><text x="786.7" y="582" text-anchor="middle" fill="#9c9590" font-size="13" font-family="Inter,system-ui,sans-serif">200k</text><line x1="963.3" y1="80" x2="963.3" y2="560" stroke="#e8e5df" stroke-width="0.5"/><text x="963.3" y="582" text-anchor="middle" fill="#9c9590" font-size="13" font-family="Inter,system-ui,sans-serif">250k</text><line x1="1140.0" y1="80" x2="1140.0" y2="560" stroke="#e8e5df" stroke-width="0.5"/><text x="1140.0" y="582" text-anchor="middle" fill="#9c9590" font-size="13" font-family="Inter,system-ui,sans-serif">300k</text>
  <path d="M81.8,560.0L85.3,560.0L88.8,560.0L92.4,560.0L95.9,560.0L99.4,560.0L103.0,560.0L106.5,560.0L110.0,560.0L113.6,560.0L117.1,560.0L120.6,560.0L124.2,468.8L127.7,405.4L131.2,388.2L134.8,369.9L138.3,352.6L141.8,335.4L145.4,327.7L148.9,324.8L152.4,321.0L156.0,317.1L159.5,314.2L163.0,311.4L166.6,307.5L170.1,303.7L173.6,301.8L177.2,297.0L180.7,295.0L184.2,290.2L187.8,288.3L191.3,284.5L194.8,280.6L198.4,277.8L201.9,273.9L205.4,271.0L209.0,268.2L212.5,264.3L216.0,261.4L219.6,257.6L223.1,254.7L226.6,250.9L230.2,248.0L233.7,244.2L237.2,241.3L240.8,237.4L244.3,234.6L247.8,231.7L251.4,227.8L254.9,224.0L258.4,221.1L262.0,218.2L265.5,214.4L269.0,211.5L272.6,207.7L276.1,204.8L279.6,201.0L283.2,198.1L286.7,194.2L290.2,191.4L293.8,188.5L297.3,184.6L300.8,180.8L304.4,177.9L307.9,175.0L311.4,171.2L315.0,168.3L318.5,164.5L322.0,161.6L325.6,157.8L329.1,156.8L332.6,156.8L336.2,156.8L339.7,156.8L343.2,156.8L346.8,156.8L350.3,156.8L353.8,156.8L357.4,156.8L360.9,156.8L364.4,156.8L368.0,156.8L371.5,156.8L375.0,156.8L378.6,156.8L382.1,156.8L385.6,156.8L389.2,156.8L392.7,156.8L396.2,156.8L399.8,156.8L403.3,156.8L406.8,156.8L410.4,156.8L413.9,156.8L417.4,156.8L421.0,156.8L424.5,156.8L428.0,156.8L431.6,156.8L435.1,156.8L438.6,156.8L442.2,156.8L445.7,156.8L449.2,156.8L452.8,156.8L456.3,156.8L459.8,156.8L463.4,156.8L466.9,156.8L470.4,156.8L474.0,156.8L477.5,156.8L481.0,156.8L484.6,156.8L488.1,156.8L491.6,156.8L495.2,156.8L498.7,156.8L502.2,156.8L505.8,156.8L509.3,156.8L512.8,156.8L516.4,156.8L519.9,156.8L523.4,156.8L527.0,156.8L530.5,156.8L534.0,156.8L537.6,156.8L541.1,156.8L544.6,156.8L548.2,156.8L551.7,156.8L555.2,156.8L558.8,156.8L562.3,156.8L565.8,156.8L569.4,156.8L572.9,156.8L576.4,156.8L580.0,156.8L583.5,156.8L587.0,156.8L590.6,156.8L594.1,156.8L597.6,156.8L601.2,156.8L604.7,156.8L608.2,156.8L611.8,156.8L615.3,156.8L618.8,156.8L622.4,156.8L625.9,156.8L629.4,156.8L633.0,156.8L636.5,156.8L640.0,156.8L643.6,156.8L647.1,156.8L650.6,156.8L654.2,156.8L657.7,156.8L661.2,156.8L664.8,156.8L668.3,156.8L671.8,156.8L675.4,156.8L678.9,156.8L682.4,156.8L686.0,156.8L689.5,156.8L693.0,156.8L696.6,156.8L700.1,156.8L703.6,156.8L707.2,156.8L710.7,156.8L714.2,156.8L717.8,156.8L721.3,156.8L724.8,156.8L728.4,156.8L731.9,156.8L735.4,156.8L739.0,156.8L742.5,156.8L746.0,156.8L749.6,156.8L753.1,156.8L756.6,156.8L760.2,156.8L763.7,156.8L767.2,156.8L770.8,156.8L774.3,156.8L777.8,156.8L781.4,156.8L784.9,156.8L788.4,156.8L792.0,156.8L795.5,156.8L799.0,156.8L802.6,156.8L806.1,156.8L809.6,156.8L813.2,156.8L816.7,156.8L820.2,156.8L823.8,156.8L827.3,156.8L830.8,156.8L834.4,156.8L837.9,156.8L841.4,156.8L845.0,156.8L848.5,156.8L852.0,156.8L855.6,156.8L859.1,156.8L862.6,156.8L866.2,156.8L869.7,156.8L873.2,156.8L876.8,156.8L880.3,156.8L883.8,156.8L887.4,156.8L890.9,156.8L894.4,156.8L898.0,156.8L901.5,156.8L905.0,156.8L908.6,156.8L912.1,156.8L915.6,156.8L919.2,156.8L922.7,156.8L926.2,156.8L929.8,156.8L933.3,156.8L936.8,156.8L940.4,156.8L943.9,156.8L947.4,156.8L951.0,156.8L954.5,156.8L958.0,156.8L961.6,156.8L965.1,156.8L968.6,156.8L972.2,156.8L975.7,156.8L979.2,156.8L982.8,156.8L986.3,156.8L989.8,156.8L993.4,156.8L996.9,156.8L1000.4,156.8L1004.0,156.8L1007.5,156.8L1011.0,156.8L1014.6,156.8L1018.1,156.8L1021.6,156.8L1025.2,156.8L1028.7,156.8L1032.2,156.8L1035.8,156.8L1039.3,156.8L1042.8,156.8L1046.4,156.8L1049.9,156.8L1053.4,156.8L1057.0,156.8L1060.5,152.0L1064.0,128.0L1067.6,128.0L1071.1,128.0L1074.6,128.0L1078.2,128.0L1081.7,128.0L1085.2,128.0L1088.8,128.0L1092.3,128.0L1095.8,128.0L1099.4,128.0L1102.9,128.0L1106.4,128.0L1110.0,128.0L1113.5,128.0L1117.0,128.0L1120.6,128.0L1124.1,128.0L1127.6,128.0L1131.2,128.0L1134.7,128.0L1138.2,128.0L1141.8,128.0 L1140.0,560.0 L80.0,560.0 Z" fill="#2563a0" fill-opacity="0.06"/>
  <path d="M81.8,560.0L85.3,560.0L88.8,560.0L92.4,560.0L95.9,560.0L99.4,560.0L103.0,560.0L106.5,560.0L110.0,560.0L113.6,560.0L117.1,560.0L120.6,560.0L124.2,471.7L127.7,419.8L131.2,414.1L134.8,408.3L138.3,403.5L141.8,397.8L145.4,393.0L148.9,387.2L152.4,381.4L156.0,376.6L159.5,370.9L163.0,366.1L166.6,360.3L170.1,355.5L173.6,349.8L177.2,344.0L180.7,339.2L184.2,333.4L187.8,327.7L191.3,322.9L194.8,318.1L198.4,312.3L201.9,306.6L205.4,301.8L209.0,296.0L212.5,290.2L216.0,285.4L219.6,279.7L223.1,274.9L226.6,269.1L230.2,264.3L233.7,258.6L237.2,252.8L240.8,248.0L244.3,242.2L247.8,237.4L251.4,231.7L254.9,225.9L258.4,221.1L262.0,216.3L265.5,209.6L269.0,204.8L272.6,200.0L276.1,194.2L279.6,188.5L283.2,183.7L286.7,177.9L290.2,173.1L293.8,167.4L297.3,161.6L300.8,156.8L304.4,151.0L307.9,146.2L311.4,140.5L315.0,134.7L318.5,129.9L322.0,125.1L325.6,118.4L329.1,113.6L332.6,108.8L336.2,103.0L339.7,97.3L343.2,92.5L346.8,89.6L350.3,89.6L353.8,89.6L357.4,89.6L360.9,89.6L364.4,89.6L368.0,89.6L371.5,89.6L375.0,89.6L378.6,89.6L382.1,89.6L385.6,89.6L389.2,89.6L392.7,89.6L396.2,89.6L399.8,89.6L403.3,89.6L406.8,89.6L410.4,89.6L413.9,89.6L417.4,89.6L421.0,89.6L424.5,89.6L428.0,89.6L431.6,89.6L435.1,89.6L438.6,89.6L442.2,89.6L445.7,89.6L449.2,89.6L452.8,89.6L456.3,89.6L459.8,89.6L463.4,89.6L466.9,89.6L470.4,89.6L474.0,89.6L477.5,89.6L481.0,89.6L484.6,89.6L488.1,89.6L491.6,89.6L495.2,89.6L498.7,89.6L502.2,89.6L505.8,89.6L509.3,89.6L512.8,89.6L516.4,89.6L519.9,89.6L523.4,89.6L527.0,89.6L530.5,89.6L534.0,89.6L537.6,89.6L541.1,89.6L544.6,89.6L548.2,89.6L551.7,89.6L555.2,89.6L558.8,89.6L562.3,89.6L565.8,89.6L569.4,89.6L572.9,89.6L576.4,89.6L580.0,89.6L583.5,89.6L587.0,89.6L590.6,89.6L594.1,89.6L597.6,89.6L601.2,89.6L604.7,89.6L608.2,89.6L611.8,89.6L615.3,89.6L618.8,89.6L622.4,89.6L625.9,89.6L629.4,89.6L633.0,89.6L636.5,89.6L640.0,89.6L643.6,89.6L647.1,89.6L650.6,89.6L654.2,89.6L657.7,89.6L661.2,89.6L664.8,89.6L668.3,89.6L671.8,89.6L675.4,89.6L678.9,89.6L682.4,89.6L686.0,89.6L689.5,89.6L693.0,89.6L696.6,89.6L700.1,89.6L703.6,89.6L707.2,89.6L710.7,89.6L714.2,89.6L717.8,89.6L721.3,89.6L724.8,89.6L728.4,89.6L731.9,89.6L735.4,89.6L739.0,89.6L742.5,89.6L746.0,89.6L749.6,89.6L753.1,89.6L756.6,89.6L760.2,89.6L763.7,89.6L767.2,89.6L770.8,89.6L774.3,89.6L777.8,89.6L781.4,89.6L784.9,89.6L788.4,89.6L792.0,89.6L795.5,89.6L799.0,89.6L802.6,89.6L806.1,89.6L809.6,89.6L813.2,89.6L816.7,89.6L820.2,89.6L823.8,89.6L827.3,89.6L830.8,89.6L834.4,89.6L837.9,89.6L841.4,89.6L845.0,89.6L848.5,89.6L852.0,89.6L855.6,89.6L859.1,89.6L862.6,89.6L866.2,89.6L869.7,89.6L873.2,89.6L876.8,89.6L880.3,89.6L883.8,89.6L887.4,89.6L890.9,89.6L894.4,89.6L898.0,89.6L901.5,89.6L905.0,89.6L908.6,89.6L912.1,89.6L915.6,89.6L919.2,89.6L922.7,89.6L926.2,89.6L929.8,89.6L933.3,89.6L936.8,89.6L940.4,89.6L943.9,89.6L947.4,89.6L951.0,89.6L954.5,89.6L958.0,89.6L961.6,89.6L965.1,89.6L968.6,89.6L972.2,89.6L975.7,89.6L979.2,89.6L982.8,89.6L986.3,89.6L989.8,89.6L993.4,89.6L996.9,89.6L1000.4,89.6L1004.0,89.6L1007.5,89.6L1011.0,89.6L1014.6,89.6L1018.1,89.6L1021.6,89.6L1025.2,89.6L1028.7,89.6L1032.2,89.6L1035.8,89.6L1039.3,89.6L1042.8,89.6L1046.4,89.6L1049.9,89.6L1053.4,89.6L1057.0,89.6L1060.5,89.6L1064.0,89.6L1067.6,89.6L1071.1,89.6L1074.6,89.6L1078.2,89.6L1081.7,89.6L1085.2,89.6L1088.8,89.6L1092.3,89.6L1095.8,89.6L1099.4,89.6L1102.9,89.6L1106.4,89.6L1110.0,89.6L1113.5,89.6L1117.0,89.6L1120.6,89.6L1124.1,89.6L1127.6,89.6L1131.2,89.6L1134.7,89.6L1138.2,89.6L1141.8,89.6 L1140.0,560.0 L80.0,560.0 Z" fill="#c2590a" fill-opacity="0.06"/>
  <path d="M81.8,560.0L85.3,560.0L88.8,560.0L92.4,560.0L95.9,560.0L99.4,560.0L103.0,560.0L106.5,560.0L110.0,560.0L113.6,560.0L117.1,560.0L120.6,560.0L124.2,468.8L127.7,405.4L131.2,388.2L134.8,369.9L138.3,352.6L141.8,335.4L145.4,327.7L148.9,324.8L152.4,321.0L156.0,317.1L159.5,314.2L163.0,311.4L166.6,307.5L170.1,303.7L173.6,301.8L177.2,297.0L180.7,295.0L184.2,290.2L187.8,288.3L191.3,284.5L194.8,280.6L198.4,277.8L201.9,273.9L205.4,271.0L209.0,268.2L212.5,264.3L216.0,261.4L219.6,257.6L223.1,254.7L226.6,250.9L230.2,248.0L233.7,244.2L237.2,241.3L240.8,237.4L244.3,234.6L247.8,231.7L251.4,227.8L254.9,224.0L258.4,221.1L262.0,218.2L265.5,214.4L269.0,211.5L272.6,207.7L276.1,204.8L279.6,201.0L283.2,198.1L286.7,194.2L290.2,191.4L293.8,188.5L297.3,184.6L300.8,180.8L304.4,177.9L307.9,175.0L311.4,171.2L315.0,168.3L318.5,164.5L322.0,161.6L325.6,157.8L329.1,156.8L332.6,156.8L336.2,156.8L339.7,156.8L343.2,156.8L346.8,156.8L350.3,156.8L353.8,156.8L357.4,156.8L360.9,156.8L364.4,156.8L368.0,156.8L371.5,156.8L375.0,156.8L378.6,156.8L382.1,156.8L385.6,156.8L389.2,156.8L392.7,156.8L396.2,156.8L399.8,156.8L403.3,156.8L406.8,156.8L410.4,156.8L413.9,156.8L417.4,156.8L421.0,156.8L424.5,156.8L428.0,156.8L431.6,156.8L435.1,156.8L438.6,156.8L442.2,156.8L445.7,156.8L449.2,156.8L452.8,156.8L456.3,156.8L459.8,156.8L463.4,156.8L466.9,156.8L470.4,156.8L474.0,156.8L477.5,156.8L481.0,156.8L484.6,156.8L488.1,156.8L491.6,156.8L495.2,156.8L498.7,156.8L502.2,156.8L505.8,156.8L509.3,156.8L512.8,156.8L516.4,156.8L519.9,156.8L523.4,156.8L527.0,156.8L530.5,156.8L534.0,156.8L537.6,156.8L541.1,156.8L544.6,156.8L548.2,156.8L551.7,156.8L555.2,156.8L558.8,156.8L562.3,156.8L565.8,156.8L569.4,156.8L572.9,156.8L576.4,156.8L580.0,156.8L583.5,156.8L587.0,156.8L590.6,156.8L594.1,156.8L597.6,156.8L601.2,156.8L604.7,156.8L608.2,156.8L611.8,156.8L615.3,156.8L618.8,156.8L622.4,156.8L625.9,156.8L629.4,156.8L633.0,156.8L636.5,156.8L640.0,156.8L643.6,156.8L647.1,156.8L650.6,156.8L654.2,156.8L657.7,156.8L661.2,156.8L664.8,156.8L668.3,156.8L671.8,156.8L675.4,156.8L678.9,156.8L682.4,156.8L686.0,156.8L689.5,156.8L693.0,156.8L696.6,156.8L700.1,156.8L703.6,156.8L707.2,156.8L710.7,156.8L714.2,156.8L717.8,156.8L721.3,156.8L724.8,156.8L728.4,156.8L731.9,156.8L735.4,156.8L739.0,156.8L742.5,156.8L746.0,156.8L749.6,156.8L753.1,156.8L756.6,156.8L760.2,156.8L763.7,156.8L767.2,156.8L770.8,156.8L774.3,156.8L777.8,156.8L781.4,156.8L784.9,156.8L788.4,156.8L792.0,156.8L795.5,156.8L799.0,156.8L802.6,156.8L806.1,156.8L809.6,156.8L813.2,156.8L816.7,156.8L820.2,156.8L823.8,156.8L827.3,156.8L830.8,156.8L834.4,156.8L837.9,156.8L841.4,156.8L845.0,156.8L848.5,156.8L852.0,156.8L855.6,156.8L859.1,156.8L862.6,156.8L866.2,156.8L869.7,156.8L873.2,156.8L876.8,156.8L880.3,156.8L883.8,156.8L887.4,156.8L890.9,156.8L894.4,156.8L898.0,156.8L901.5,156.8L905.0,156.8L908.6,156.8L912.1,156.8L915.6,156.8L919.2,156.8L922.7,156.8L926.2,156.8L929.8,156.8L933.3,156.8L936.8,156.8L940.4,156.8L943.9,156.8L947.4,156.8L951.0,156.8L954.5,156.8L958.0,156.8L961.6,156.8L965.1,156.8L968.6,156.8L972.2,156.8L975.7,156.8L979.2,156.8L982.8,156.8L986.3,156.8L989.8,156.8L993.4,156.8L996.9,156.8L1000.4,156.8L1004.0,156.8L1007.5,156.8L1011.0,156.8L1014.6,156.8L1018.1,156.8L1021.6,156.8L1025.2,156.8L1028.7,156.8L1032.2,156.8L1035.8,156.8L1039.3,156.8L1042.8,156.8L1046.4,156.8L1049.9,156.8L1053.4,156.8L1057.0,156.8L1060.5,152.0L1064.0,128.0L1067.6,128.0L1071.1,128.0L1074.6,128.0L1078.2,128.0L1081.7,128.0L1085.2,128.0L1088.8,128.0L1092.3,128.0L1095.8,128.0L1099.4,128.0L1102.9,128.0L1106.4,128.0L1110.0,128.0L1113.5,128.0L1117.0,128.0L1120.6,128.0L1124.1,128.0L1127.6,128.0L1131.2,128.0L1134.7,128.0L1138.2,128.0L1141.8,128.0" fill="none" stroke="#2563a0" stroke-width="2.5"/>
  <path d="M81.8,560.0L85.3,560.0L88.8,560.0L92.4,560.0L95.9,560.0L99.4,560.0L103.0,560.0L106.5,560.0L110.0,560.0L113.6,560.0L117.1,560.0L120.6,560.0L124.2,471.7L127.7,419.8L131.2,414.1L134.8,408.3L138.3,403.5L141.8,397.8L145.4,393.0L148.9,387.2L152.4,381.4L156.0,376.6L159.5,370.9L163.0,366.1L166.6,360.3L170.1,355.5L173.6,349.8L177.2,344.0L180.7,339.2L184.2,333.4L187.8,327.7L191.3,322.9L194.8,318.1L198.4,312.3L201.9,306.6L205.4,301.8L209.0,296.0L212.5,290.2L216.0,285.4L219.6,279.7L223.1,274.9L226.6,269.1L230.2,264.3L233.7,258.6L237.2,252.8L240.8,248.0L244.3,242.2L247.8,237.4L251.4,231.7L254.9,225.9L258.4,221.1L262.0,216.3L265.5,209.6L269.0,204.8L272.6,200.0L276.1,194.2L279.6,188.5L283.2,183.7L286.7,177.9L290.2,173.1L293.8,167.4L297.3,161.6L300.8,156.8L304.4,151.0L307.9,146.2L311.4,140.5L315.0,134.7L318.5,129.9L322.0,125.1L325.6,118.4L329.1,113.6L332.6,108.8L336.2,103.0L339.7,97.3L343.2,92.5L346.8,89.6L350.3,89.6L353.8,89.6L357.4,89.6L360.9,89.6L364.4,89.6L368.0,89.6L371.5,89.6L375.0,89.6L378.6,89.6L382.1,89.6L385.6,89.6L389.2,89.6L392.7,89.6L396.2,89.6L399.8,89.6L403.3,89.6L406.8,89.6L410.4,89.6L413.9,89.6L417.4,89.6L421.0,89.6L424.5,89.6L428.0,89.6L431.6,89.6L435.1,89.6L438.6,89.6L442.2,89.6L445.7,89.6L449.2,89.6L452.8,89.6L456.3,89.6L459.8,89.6L463.4,89.6L466.9,89.6L470.4,89.6L474.0,89.6L477.5,89.6L481.0,89.6L484.6,89.6L488.1,89.6L491.6,89.6L495.2,89.6L498.7,89.6L502.2,89.6L505.8,89.6L509.3,89.6L512.8,89.6L516.4,89.6L519.9,89.6L523.4,89.6L527.0,89.6L530.5,89.6L534.0,89.6L537.6,89.6L541.1,89.6L544.6,89.6L548.2,89.6L551.7,89.6L555.2,89.6L558.8,89.6L562.3,89.6L565.8,89.6L569.4,89.6L572.9,89.6L576.4,89.6L580.0,89.6L583.5,89.6L587.0,89.6L590.6,89.6L594.1,89.6L597.6,89.6L601.2,89.6L604.7,89.6L608.2,89.6L611.8,89.6L615.3,89.6L618.8,89.6L622.4,89.6L625.9,89.6L629.4,89.6L633.0,89.6L636.5,89.6L640.0,89.6L643.6,89.6L647.1,89.6L650.6,89.6L654.2,89.6L657.7,89.6L661.2,89.6L664.8,89.6L668.3,89.6L671.8,89.6L675.4,89.6L678.9,89.6L682.4,89.6L686.0,89.6L689.5,89.6L693.0,89.6L696.6,89.6L700.1,89.6L703.6,89.6L707.2,89.6L710.7,89.6L714.2,89.6L717.8,89.6L721.3,89.6L724.8,89.6L728.4,89.6L731.9,89.6L735.4,89.6L739.0,89.6L742.5,89.6L746.0,89.6L749.6,89.6L753.1,89.6L756.6,89.6L760.2,89.6L763.7,89.6L767.2,89.6L770.8,89.6L774.3,89.6L777.8,89.6L781.4,89.6L784.9,89.6L788.4,89.6L792.0,89.6L795.5,89.6L799.0,89.6L802.6,89.6L806.1,89.6L809.6,89.6L813.2,89.6L816.7,89.6L820.2,89.6L823.8,89.6L827.3,89.6L830.8,89.6L834.4,89.6L837.9,89.6L841.4,89.6L845.0,89.6L848.5,89.6L852.0,89.6L855.6,89.6L859.1,89.6L862.6,89.6L866.2,89.6L869.7,89.6L873.2,89.6L876.8,89.6L880.3,89.6L883.8,89.6L887.4,89.6L890.9,89.6L894.4,89.6L898.0,89.6L901.5,89.6L905.0,89.6L908.6,89.6L912.1,89.6L915.6,89.6L919.2,89.6L922.7,89.6L926.2,89.6L929.8,89.6L933.3,89.6L936.8,89.6L940.4,89.6L943.9,89.6L947.4,89.6L951.0,89.6L954.5,89.6L958.0,89.6L961.6,89.6L965.1,89.6L968.6,89.6L972.2,89.6L975.7,89.6L979.2,89.6L982.8,89.6L986.3,89.6L989.8,89.6L993.4,89.6L996.9,89.6L1000.4,89.6L1004.0,89.6L1007.5,89.6L1011.0,89.6L1014.6,89.6L1018.1,89.6L1021.6,89.6L1025.2,89.6L1028.7,89.6L1032.2,89.6L1035.8,89.6L1039.3,89.6L1042.8,89.6L1046.4,89.6L1049.9,89.6L1053.4,89.6L1057.0,89.6L1060.5,89.6L1064.0,89.6L1067.6,89.6L1071.1,89.6L1074.6,89.6L1078.2,89.6L1081.7,89.6L1085.2,89.6L1088.8,89.6L1092.3,89.6L1095.8,89.6L1099.4,89.6L1102.9,89.6L1106.4,89.6L1110.0,89.6L1113.5,89.6L1117.0,89.6L1120.6,89.6L1124.1,89.6L1127.6,89.6L1131.2,89.6L1134.7,89.6L1138.2,89.6L1141.8,89.6" fill="none" stroke="#c2590a" stroke-width="2.5" stroke-dasharray="7,4"/>
  <text x="600" y="615" text-anchor="middle" fill="#9c9590" font-size="13" font-family="Inter,system-ui,sans-serif">zu versteuerndes Einkommen in €</text>
  <line x1="90" y1="72" x2="115" y2="72" stroke="#2563a0" stroke-width="2.5"/>
  <text x="120" y="76" fill="#6b6560" font-size="12" font-family="Inter,system-ui,sans-serif">Status Quo 2026</text>
  <line x1="250" y1="72" x2="275" y2="72" stroke="#c2590a" stroke-width="2.5" stroke-dasharray="5,3"/>
  <text x="280" y="76" fill="#6b6560" font-size="12" font-family="Inter,system-ui,sans-serif">Mittelstandsbauch abschaffen + 49%</text>
</svg>